<?xml version="1.0" encoding="UTF-8"?>
<svg id="Camada_2" width="658" height="192" data-name="Camada 2" xmlns="http://www.w3.org/2000/svg" xmlns:xlink="http://www.w3.org/1999/xlink" viewBox="0 0 657.71 191.33">
  <defs>
    <style>
      .cls-1, .cls-2, .cls-3 {
        fill: #ffffff;
      }

      .cls-2 {
        stroke: url(#Gradiente_sem_nome_75);
      }

      .cls-2, .cls-3, .cls-4 {
        stroke-miterlimit: 10;
        stroke-width: .75px;
      }

      .cls-3 {
        stroke: url(#Gradiente_sem_nome_75-2);
      }

      .cls-4 {
        fill: url(#Degradado_sin_nombre_6);
        stroke: url(#Nova_amostra_de_gradiente_2);
      }
    </style>
    <linearGradient id="Degradado_sin_nombre_6" data-name="Degradado sin nombre 6" x1="288.74" y1="43.32" x2="202.39" y2="203.99" gradientUnits="userSpaceOnUse">
      <stop offset=".08" stop-color="#b57422"/>
      <stop offset=".19" stop-color="#fcd578"/>
      <stop offset=".3" stop-color="#fff0b7"/>
      <stop offset=".46" stop-color="#f8bc5c"/>
      <stop offset=".6" stop-color="#b57422"/>
      <stop offset=".64" stop-color="#b87825"/>
      <stop offset=".68" stop-color="#c18531"/>
      <stop offset=".71" stop-color="#d19a44"/>
      <stop offset=".75" stop-color="#e6b75e"/>
      <stop offset=".78" stop-color="#fcd578"/>
      <stop offset=".94" stop-color="#fff0b7"/>
    </linearGradient>
    <linearGradient id="Nova_amostra_de_gradiente_2" data-name="Nova amostra de gradiente 2" x1="208.12" y1="129.88" x2="258.9" y2="129.88" gradientUnits="userSpaceOnUse">
      <stop offset=".08" stop-color="#b57422"/>
      <stop offset=".19" stop-color="#fcd578"/>
      <stop offset=".3" stop-color="#fff0b7"/>
      <stop offset=".46" stop-color="#f8bc5c"/>
      <stop offset=".6" stop-color="#b57422"/>
      <stop offset=".64" stop-color="#b87825"/>
      <stop offset=".68" stop-color="#c18531"/>
      <stop offset=".71" stop-color="#d19a44"/>
      <stop offset=".75" stop-color="#e6b75e"/>
      <stop offset=".78" stop-color="#fcd578"/>
      <stop offset=".94" stop-color="#fff0b7"/>
    </linearGradient>
    <linearGradient id="Gradiente_sem_nome_75" data-name="Gradiente sem nome 75" x1="0" y1="95.66" x2="217.39" y2="95.66" gradientUnits="userSpaceOnUse">
      <stop offset=".06" stop-color="#fff0b7"/>
      <stop offset=".22" stop-color="#fcd578"/>
      <stop offset=".25" stop-color="#e6b75e"/>
      <stop offset=".29" stop-color="#d19a44"/>
      <stop offset=".32" stop-color="#c18531"/>
      <stop offset=".36" stop-color="#b87825"/>
      <stop offset=".4" stop-color="#b57422"/>
      <stop offset=".54" stop-color="#f8bc5c"/>
      <stop offset=".7" stop-color="#fff0b7"/>
      <stop offset=".81" stop-color="#fcd578"/>
      <stop offset=".92" stop-color="#b57422"/>
    </linearGradient>
    <linearGradient id="Gradiente_sem_nome_75-2" data-name="Gradiente sem nome 75" x1="125.69" y1="50.68" x2="258.9" y2="50.68" xlink:href="#Gradiente_sem_nome_75"/>
  </defs>
  <g id="Camada_1-2" data-name="Camada 1">
    <g>
      <g>
        <path class="cls-4" d="M258.52,69.11v121.84h-42.39s0-.16,0-.46c.13-6.22,1.53-72.97.51-82.39-.8-7.46-6.82-8.57-7.2-8.63,0,0-.02,0-.02,0l49.09-30.35Z"/>
        <path class="cls-2" d="M216.65,108.1c-.8-7.46-6.82-8.57-7.2-8.63,0,0-.02,0-.02,0l-29.01,19.19v62.92L105.89.38h-26.33L.56,190.95h39.27l14.28-33.47h29.46l37.04-28.57,25.88,62.04h69.63s0-.16,0-.46c.13-6.22,1.53-72.97.51-82.39ZM67.51,122.67l24.54-62.04,26.34,62.04h-50.88Z"/>
        <polygon class="cls-3" points="180.64 100.68 217.15 77.82 216.99 35.41 258.52 35.41 258.52 .38 126.25 .38 140.48 34.91 180.42 34.91 180.64 100.68"/>
      </g>
      <g>
        <path class="cls-1" d="M312.82,41.98c-.51-.83-1.2-1.47-2.08-1.92-.88-.45-1.92-.67-3.11-.67-2.2,0-3.94.71-5.21,2.14s-1.9,3.35-1.9,5.76c0,2.71.68,4.77,2.03,6.19,1.36,1.42,3.33,2.12,5.92,2.12,3.07,0,5.26-1.39,6.57-4.16h-8.8v-6.3h16.36v8.49c-.69,1.67-1.69,3.23-3.02,4.69-1.33,1.46-3,2.66-5.03,3.6-2.03.94-4.33,1.41-6.93,1.41-3.16,0-5.95-.68-8.38-2.03-2.43-1.36-4.3-3.25-5.63-5.68-1.33-2.43-1.99-5.21-1.99-8.33s.66-5.86,1.99-8.29c1.33-2.43,3.2-4.32,5.61-5.68,2.41-1.36,5.2-2.03,8.36-2.03,3.96,0,7.24.95,9.83,2.86,2.59,1.91,4.2,4.51,4.83,7.82h-9.43Z"/>
        <path class="cls-1" d="M350.36,52.35h-16.58c.09,1.37.47,2.39,1.14,3.06.67.67,1.53,1.01,2.57,1.01,1.46,0,2.5-.65,3.13-1.97h9.34c-.39,1.73-1.14,3.27-2.26,4.62-1.12,1.36-2.52,2.42-4.22,3.2-1.7.77-3.58,1.16-5.63,1.16-2.47,0-4.67-.52-6.59-1.56-1.92-1.04-3.43-2.53-4.51-4.47-1.09-1.94-1.63-4.22-1.63-6.84s.54-4.89,1.61-6.81c1.07-1.92,2.57-3.4,4.49-4.45,1.92-1.04,4.13-1.56,6.64-1.56s4.66.51,6.57,1.52c1.91,1.01,3.4,2.47,4.47,4.36,1.07,1.89,1.61,4.12,1.61,6.68,0,.69-.04,1.37-.13,2.06ZM341.56,48.1c0-1.07-.36-1.91-1.07-2.52-.72-.61-1.61-.92-2.68-.92s-1.95.29-2.64.87c-.69.58-1.13,1.44-1.34,2.57h7.73Z"/>
        <path class="cls-1" d="M358.69,62.29c-1.77-.76-3.17-1.8-4.2-3.13-1.03-1.33-1.6-2.82-1.72-4.49h8.49c.12.8.49,1.43,1.12,1.88.63.45,1.4.67,2.32.67.72,0,1.28-.15,1.7-.45.42-.3.63-.68.63-1.16,0-.63-.34-1.09-1.03-1.39-.69-.3-1.82-.63-3.4-.98-1.79-.36-3.28-.76-4.47-1.21-1.19-.45-2.23-1.18-3.11-2.19-.88-1.01-1.32-2.38-1.32-4.11,0-1.49.4-2.84,1.21-4.04.8-1.21,1.99-2.17,3.55-2.88,1.56-.72,3.45-1.07,5.65-1.07,3.28,0,5.85.8,7.73,2.41,1.88,1.61,2.96,3.72,3.26,6.35h-7.91c-.15-.8-.5-1.42-1.05-1.85-.55-.43-1.29-.65-2.21-.65-.72,0-1.26.13-1.63.4-.37.27-.56.64-.56,1.12,0,.6.34,1.05,1.03,1.36s1.79.63,3.31.96c1.82.39,3.33.82,4.54,1.3,1.21.48,2.26,1.24,3.17,2.3.91,1.06,1.36,2.5,1.36,4.31,0,1.46-.42,2.77-1.27,3.93-.85,1.16-2.06,2.08-3.62,2.75-1.56.67-3.4,1.01-5.52,1.01-2.26,0-4.28-.38-6.05-1.14Z"/>
        <path class="cls-1" d="M394.24,55.65v7.46h-3.8c-6.41,0-9.61-3.17-9.61-9.52v-8.27h-3.08v-7.28h3.08v-6.08h8.8v6.08h4.56v7.28h-4.56v8.4c0,.69.16,1.18.47,1.47.31.3.84.45,1.59.45h2.55Z"/>
        <path class="cls-1" d="M398.24,43.77c.94-1.94,2.22-3.43,3.84-4.47,1.62-1.04,3.43-1.56,5.43-1.56,1.73,0,3.22.34,4.47,1.03,1.25.69,2.22,1.61,2.91,2.77v-3.49h8.76v25.07h-8.76v-3.49c-.69,1.16-1.66,2.09-2.93,2.77-1.27.69-2.75,1.03-4.45,1.03-2,0-3.81-.52-5.43-1.56-1.62-1.04-2.9-2.54-3.84-4.49-.94-1.95-1.41-4.22-1.41-6.81s.47-4.86,1.41-6.79ZM408.14,28.89c.69,0,1.3.1,1.85.31.55.21,1.18.51,1.9.89.51.27.94.48,1.3.63.36.15.72.22,1.07.22,1.1,0,1.76-.68,1.97-2.06h4.42c-.42,2.53-1.2,4.37-2.35,5.52-1.15,1.15-2.6,1.72-4.36,1.72-.66,0-1.25-.1-1.79-.29-.54-.19-1.19-.48-1.97-.87-.51-.27-.94-.48-1.3-.63-.36-.15-.72-.22-1.07-.22-1.07,0-1.74.69-2.01,2.06h-4.38c.83-4.86,3.07-7.28,6.7-7.28ZM413.57,46.76c-.88-.92-1.96-1.39-3.24-1.39s-2.4.45-3.26,1.36c-.86.91-1.3,2.18-1.3,3.82s.43,2.88,1.3,3.82c.86.94,1.95,1.41,3.26,1.41s2.36-.46,3.24-1.39c.88-.92,1.32-2.2,1.32-3.84s-.44-2.87-1.32-3.8Z"/>
        <path class="cls-1" d="M433.59,61.86c-1.98-1.04-3.54-2.53-4.67-4.47-1.13-1.94-1.7-4.22-1.7-6.84s.57-4.86,1.72-6.79c1.15-1.94,2.71-3.43,4.69-4.47,1.98-1.04,4.22-1.56,6.73-1.56s4.74.52,6.73,1.56c1.98,1.04,3.55,2.53,4.69,4.47,1.15,1.94,1.72,4.2,1.72,6.79s-.57,4.86-1.72,6.81c-1.15,1.95-2.72,3.45-4.71,4.49-2,1.04-4.25,1.56-6.75,1.56s-4.74-.52-6.73-1.56ZM443.37,54.47c.82-.91,1.23-2.21,1.23-3.91s-.41-2.99-1.23-3.89c-.82-.89-1.83-1.34-3.02-1.34s-2.19.45-2.99,1.34c-.8.89-1.21,2.19-1.21,3.89s.39,3.04,1.16,3.93c.77.89,1.77,1.34,2.99,1.34s2.24-.45,3.06-1.36Z"/>
        <path class="cls-1" d="M292.69,105c.94-1.94,2.23-3.43,3.87-4.47,1.64-1.04,3.46-1.56,5.45-1.56,1.61,0,3.05.33,4.31,1.01s2.26,1.59,2.97,2.75v-11.44h8.8v33.07h-8.8v-3.49c-.69,1.16-1.65,2.09-2.9,2.77-1.25.69-2.73,1.03-4.42,1.03-2,0-3.81-.52-5.43-1.56-1.62-1.04-2.9-2.54-3.84-4.49-.94-1.95-1.41-4.22-1.41-6.81s.47-4.86,1.41-6.79ZM308.02,108c-.88-.92-1.96-1.39-3.24-1.39s-2.4.45-3.26,1.36c-.86.91-1.3,2.18-1.3,3.82s.43,2.88,1.3,3.82c.86.94,1.95,1.41,3.26,1.41s2.36-.46,3.24-1.39c.88-.92,1.32-2.2,1.32-3.84s-.44-2.87-1.32-3.8Z"/>
        <path class="cls-1" d="M346.92,113.58h-16.58c.09,1.37.47,2.39,1.14,3.06.67.67,1.53,1.01,2.57,1.01,1.46,0,2.5-.65,3.13-1.97h9.34c-.39,1.73-1.14,3.27-2.26,4.63-1.12,1.36-2.52,2.42-4.22,3.19-1.7.77-3.58,1.16-5.63,1.16-2.47,0-4.67-.52-6.59-1.56-1.92-1.04-3.43-2.53-4.51-4.47-1.09-1.94-1.63-4.22-1.63-6.84s.54-4.89,1.61-6.81c1.07-1.92,2.57-3.4,4.49-4.45,1.92-1.04,4.13-1.56,6.64-1.56s4.66.51,6.57,1.52c1.91,1.01,3.4,2.47,4.47,4.36,1.07,1.89,1.61,4.12,1.61,6.68,0,.69-.04,1.37-.13,2.06ZM338.12,109.34c0-1.07-.36-1.91-1.07-2.52-.72-.61-1.61-.92-2.68-.92s-1.95.29-2.64.87c-.69.58-1.13,1.44-1.34,2.57h7.73Z"/>
        <path class="cls-1" d="M388.34,124.35h-8.76l-11.66-17.61v17.61h-8.76v-31.5h8.76l11.66,17.83v-17.83h8.76v31.5Z"/>
        <path class="cls-1" d="M417.17,113.58h-16.58c.09,1.37.47,2.39,1.14,3.06.67.67,1.53,1.01,2.57,1.01,1.46,0,2.5-.65,3.13-1.97h9.34c-.39,1.73-1.14,3.27-2.26,4.63-1.12,1.36-2.52,2.42-4.22,3.19-1.7.77-3.58,1.16-5.63,1.16-2.47,0-4.67-.52-6.59-1.56-1.92-1.04-3.43-2.53-4.51-4.47-1.09-1.94-1.63-4.22-1.63-6.84s.54-4.89,1.61-6.81c1.07-1.92,2.57-3.4,4.49-4.45,1.92-1.04,4.13-1.56,6.64-1.56s4.66.51,6.57,1.52c1.91,1.01,3.4,2.47,4.47,4.36,1.07,1.89,1.61,4.12,1.61,6.68,0,.69-.04,1.37-.13,2.06ZM408.36,109.34c0-1.07-.36-1.91-1.07-2.52-.72-.61-1.61-.92-2.68-.92s-1.95.29-2.64.87c-.69.58-1.13,1.44-1.34,2.57h7.73Z"/>
        <path class="cls-1" d="M434.57,100c1.27.69,2.24,1.61,2.93,2.77v-3.49h8.76v24.8c0,2.35-.45,4.48-1.34,6.37-.89,1.89-2.29,3.4-4.18,4.54-1.89,1.13-4.28,1.7-7.17,1.7-3.87,0-6.97-.91-9.3-2.73-2.32-1.82-3.65-4.29-3.98-7.42h8.62c.18.8.63,1.43,1.34,1.88.71.45,1.64.67,2.77.67,2.98,0,4.47-1.67,4.47-5v-3.22c-.69,1.16-1.66,2.09-2.93,2.77-1.27.69-2.75,1.03-4.45,1.03-2,0-3.81-.52-5.43-1.56-1.62-1.04-2.9-2.54-3.84-4.49-.94-1.95-1.41-4.22-1.41-6.81s.47-4.86,1.41-6.79c.94-1.94,2.22-3.43,3.84-4.47,1.62-1.04,3.43-1.56,5.43-1.56,1.7,0,3.18.34,4.45,1.03ZM436.18,108c-.88-.92-1.96-1.39-3.24-1.39s-2.4.45-3.26,1.36c-.86.91-1.3,2.18-1.3,3.82s.43,2.88,1.3,3.82c.86.94,1.95,1.41,3.26,1.41s2.36-.46,3.24-1.39c.88-.92,1.32-2.2,1.32-3.84s-.44-2.87-1.32-3.8Z"/>
        <path class="cls-1" d="M456.2,123.1c-1.98-1.04-3.54-2.53-4.67-4.47-1.13-1.94-1.7-4.22-1.7-6.84s.57-4.86,1.72-6.79c1.15-1.94,2.71-3.43,4.69-4.47,1.98-1.04,4.22-1.56,6.73-1.56s4.74.52,6.73,1.56c1.98,1.04,3.55,2.53,4.69,4.47,1.15,1.94,1.72,4.2,1.72,6.79s-.57,4.86-1.72,6.81c-1.15,1.95-2.72,3.45-4.71,4.49-2,1.04-4.25,1.56-6.75,1.56s-4.74-.52-6.73-1.56ZM469.27,93.12l-11.17,4.38v-5.94l11.17-5.05v6.61ZM465.98,115.71c.82-.91,1.23-2.21,1.23-3.91s-.41-2.99-1.23-3.89c-.82-.89-1.83-1.34-3.02-1.34s-2.19.45-2.99,1.34c-.8.89-1.21,2.19-1.21,3.89s.39,3.04,1.16,3.93c.77.89,1.77,1.34,2.99,1.34s2.24-.45,3.06-1.36Z"/>
        <path class="cls-1" d="M479.86,105c1.07-1.94,2.57-3.43,4.49-4.47,1.92-1.04,4.12-1.56,6.59-1.56,3.19,0,5.87.87,8.04,2.61,2.17,1.74,3.58,4.18,4.2,7.31h-9.29c-.54-1.64-1.58-2.46-3.13-2.46-1.1,0-1.97.45-2.61,1.36-.64.91-.96,2.24-.96,4s.32,3.1.96,4.02c.64.92,1.51,1.39,2.61,1.39,1.58,0,2.62-.82,3.13-2.46h9.29c-.63,3.1-2.03,5.53-4.2,7.28-2.17,1.76-4.86,2.64-8.04,2.64-2.47,0-4.67-.52-6.59-1.56-1.92-1.04-3.42-2.53-4.49-4.47-1.07-1.94-1.61-4.22-1.61-6.84s.54-4.86,1.61-6.79Z"/>
        <path class="cls-1" d="M507.5,95.69c-.94-.85-1.41-1.91-1.41-3.19s.47-2.4,1.41-3.26c.94-.86,2.18-1.3,3.73-1.3s2.75.43,3.69,1.3c.94.86,1.41,1.95,1.41,3.26s-.47,2.35-1.41,3.19-2.17,1.27-3.69,1.27-2.79-.42-3.73-1.27ZM515.56,99.28v25.07h-8.76v-25.07h8.76Z"/>
        <path class="cls-1" d="M525.51,123.1c-1.98-1.04-3.54-2.53-4.67-4.47-1.13-1.94-1.7-4.22-1.7-6.84s.57-4.86,1.72-6.79c1.15-1.94,2.71-3.43,4.69-4.47,1.98-1.04,4.22-1.56,6.73-1.56s4.74.52,6.73,1.56c1.98,1.04,3.55,2.53,4.69,4.47,1.15,1.94,1.72,4.2,1.72,6.79s-.57,4.86-1.72,6.81c-1.15,1.95-2.72,3.45-4.71,4.49-2,1.04-4.25,1.56-6.75,1.56s-4.74-.52-6.73-1.56ZM535.29,115.71c.82-.91,1.23-2.21,1.23-3.91s-.41-2.99-1.23-3.89c-.82-.89-1.83-1.34-3.02-1.34s-2.19.45-2.99,1.34c-.8.89-1.21,2.19-1.21,3.89s.39,3.04,1.16,3.93c.77.89,1.77,1.34,2.99,1.34s2.24-.45,3.06-1.36Z"/>
        <path class="cls-1" d="M553.61,123.53c-1.77-.76-3.17-1.8-4.2-3.13-1.03-1.33-1.6-2.82-1.72-4.49h8.49c.12.8.49,1.43,1.12,1.88.63.45,1.4.67,2.32.67.72,0,1.28-.15,1.7-.45.42-.3.63-.69.63-1.16,0-.63-.34-1.09-1.03-1.39-.69-.3-1.82-.63-3.4-.98-1.79-.36-3.28-.76-4.47-1.21-1.19-.45-2.23-1.18-3.11-2.19-.88-1.01-1.32-2.38-1.32-4.11,0-1.49.4-2.84,1.21-4.04.8-1.21,1.99-2.17,3.55-2.88,1.56-.72,3.45-1.07,5.65-1.07,3.28,0,5.85.8,7.73,2.41,1.88,1.61,2.96,3.72,3.26,6.35h-7.91c-.15-.8-.5-1.42-1.05-1.85-.55-.43-1.29-.65-2.21-.65-.72,0-1.26.13-1.63.4-.37.27-.56.64-.56,1.12,0,.6.34,1.05,1.03,1.36s1.79.63,3.31.96c1.82.39,3.33.82,4.54,1.3,1.21.48,2.26,1.24,3.17,2.3.91,1.06,1.36,2.5,1.36,4.31,0,1.46-.42,2.77-1.27,3.93-.85,1.16-2.06,2.08-3.62,2.75-1.56.67-3.4,1.01-5.52,1.01-2.26,0-4.28-.38-6.05-1.14Z"/>
        <path class="cls-1" d="M316.53,174.82h-16.58c.09,1.37.47,2.39,1.14,3.06.67.67,1.53,1.01,2.57,1.01,1.46,0,2.5-.66,3.13-1.97h9.34c-.39,1.73-1.14,3.27-2.26,4.62-1.12,1.36-2.52,2.42-4.22,3.19-1.7.77-3.58,1.16-5.63,1.16-2.47,0-4.67-.52-6.59-1.56-1.92-1.04-3.43-2.53-4.51-4.47-1.09-1.94-1.63-4.22-1.63-6.84s.54-4.89,1.61-6.81,2.57-3.4,4.49-4.45c1.92-1.04,4.13-1.56,6.64-1.56s4.66.51,6.57,1.52c1.91,1.01,3.4,2.47,4.47,4.36,1.07,1.89,1.61,4.12,1.61,6.68,0,.69-.04,1.37-.13,2.06ZM307.73,170.58c0-1.07-.36-1.91-1.07-2.53-.72-.61-1.61-.92-2.68-.92s-1.95.29-2.64.87c-.69.58-1.13,1.44-1.34,2.57h7.73Z"/>
        <path class="cls-1" d="M329.65,161.48c1.3-2.43,3.13-4.32,5.52-5.68,2.38-1.36,5.12-2.03,8.22-2.03,3.93,0,7.24,1.05,9.92,3.15,2.68,2.1,4.41,4.95,5.18,8.56h-9.43c-.57-1.19-1.35-2.1-2.35-2.73-1-.63-2.15-.94-3.46-.94-2.03,0-3.64.72-4.85,2.17-1.21,1.45-1.81,3.37-1.81,5.79s.6,4.39,1.81,5.83c1.21,1.45,2.82,2.17,4.85,2.17,1.31,0,2.46-.31,3.46-.94,1-.63,1.78-1.53,2.35-2.73h9.43c-.77,3.61-2.5,6.46-5.18,8.56s-5.99,3.15-9.92,3.15c-3.1,0-5.84-.68-8.22-2.03-2.38-1.36-4.22-3.25-5.52-5.68-1.3-2.43-1.94-5.21-1.94-8.33s.65-5.86,1.94-8.29Z"/>
        <path class="cls-1" d="M367.59,184.34c-1.98-1.04-3.54-2.53-4.67-4.47-1.13-1.94-1.7-4.22-1.7-6.84s.57-4.86,1.72-6.79c1.15-1.94,2.71-3.43,4.69-4.47,1.98-1.04,4.22-1.56,6.73-1.56s4.74.52,6.73,1.56c1.98,1.04,3.55,2.53,4.69,4.47,1.15,1.94,1.72,4.2,1.72,6.79s-.57,4.86-1.72,6.81c-1.15,1.95-2.72,3.45-4.71,4.49-2,1.04-4.25,1.56-6.75,1.56s-4.74-.52-6.73-1.56ZM377.37,176.94c.82-.91,1.23-2.21,1.23-3.91s-.41-2.99-1.23-3.89c-.82-.89-1.83-1.34-3.02-1.34s-2.19.45-2.99,1.34c-.8.89-1.21,2.19-1.21,3.89s.39,3.04,1.16,3.93c.77.89,1.77,1.34,2.99,1.34s2.24-.45,3.06-1.36Z"/>
        <path class="cls-1" d="M414.35,163.18c1.7,1.92,2.55,4.52,2.55,7.8v14.61h-8.76v-13.45c0-1.43-.37-2.55-1.12-3.37-.75-.82-1.74-1.23-2.99-1.23s-2.34.41-3.08,1.23c-.75.82-1.12,1.94-1.12,3.37v13.45h-8.76v-25.07h8.76v3.58c.77-1.13,1.82-2.05,3.13-2.75,1.31-.7,2.82-1.05,4.51-1.05,2.89,0,5.18.96,6.88,2.88Z"/>
        <path class="cls-1" d="M436.51,178.13v7.46h-3.8c-6.41,0-9.61-3.17-9.61-9.52v-8.27h-3.08v-7.28h3.08v-6.08h8.8v6.08h4.56v7.28h-4.56v8.4c0,.69.16,1.18.47,1.47.31.3.84.45,1.59.45h2.55Z"/>
        <path class="cls-1" d="M440.51,166.24c.94-1.94,2.22-3.43,3.84-4.47,1.62-1.04,3.43-1.56,5.43-1.56,1.73,0,3.22.34,4.47,1.03,1.25.69,2.22,1.61,2.91,2.77v-3.49h8.76v25.07h-8.76v-3.49c-.69,1.16-1.66,2.09-2.93,2.77-1.27.69-2.75,1.03-4.45,1.03-2,0-3.81-.52-5.43-1.56-1.62-1.04-2.9-2.54-3.84-4.49-.94-1.95-1.41-4.22-1.41-6.81s.47-4.86,1.41-6.79ZM455.84,169.23c-.88-.92-1.96-1.39-3.24-1.39s-2.4.45-3.26,1.36c-.86.91-1.3,2.18-1.3,3.82s.43,2.88,1.3,3.82c.86.94,1.95,1.41,3.26,1.41s2.36-.46,3.24-1.39c.88-.92,1.32-2.2,1.32-3.84s-.44-2.87-1.32-3.8Z"/>
        <path class="cls-1" d="M482.58,161.21c1.25-.67,2.73-1.01,4.42-1.01,2,0,3.81.52,5.43,1.56,1.62,1.04,2.9,2.53,3.84,4.47.94,1.94,1.41,4.2,1.41,6.79s-.47,4.86-1.41,6.81c-.94,1.95-2.22,3.45-3.84,4.49-1.62,1.04-3.43,1.56-5.43,1.56-1.7,0-3.17-.34-4.42-1.01-1.25-.67-2.22-1.6-2.9-2.79v3.49h-8.76v-33.07h8.76v11.48c.68-1.19,1.65-2.12,2.9-2.79ZM487.48,169.21c-.88-.91-1.96-1.36-3.24-1.36s-2.36.46-3.24,1.39c-.88.92-1.32,2.19-1.32,3.8s.44,2.92,1.32,3.84c.88.92,1.96,1.39,3.24,1.39s2.36-.47,3.24-1.41c.88-.94,1.32-2.21,1.32-3.82s-.44-2.91-1.32-3.82Z"/>
        <path class="cls-1" d="M502,156.92c-.94-.85-1.41-1.91-1.41-3.2s.47-2.4,1.41-3.26c.94-.86,2.18-1.3,3.73-1.3s2.75.43,3.69,1.3c.94.86,1.41,1.95,1.41,3.26s-.47,2.35-1.41,3.2c-.94.85-2.17,1.27-3.69,1.27s-2.79-.43-3.73-1.27ZM510.07,160.52v25.07h-8.76v-25.07h8.76Z"/>
        <path class="cls-1" d="M523.83,152.52v33.07h-8.76v-33.07h8.76Z"/>
        <path class="cls-1" d="M529.53,156.92c-.94-.85-1.41-1.91-1.41-3.2s.47-2.4,1.41-3.26c.94-.86,2.18-1.3,3.73-1.3s2.75.43,3.69,1.3c.94.86,1.41,1.95,1.41,3.26s-.47,2.35-1.41,3.2c-.94.85-2.17,1.27-3.69,1.27s-2.79-.43-3.73-1.27ZM537.59,160.52v25.07h-8.76v-25.07h8.76Z"/>
        <path class="cls-1" d="M542.57,166.24c.94-1.94,2.23-3.43,3.87-4.47,1.64-1.04,3.46-1.56,5.45-1.56,1.61,0,3.05.34,4.31,1.01s2.26,1.59,2.97,2.75v-11.44h8.8v33.07h-8.8v-3.49c-.69,1.16-1.65,2.09-2.9,2.77-1.25.69-2.73,1.03-4.42,1.03-2,0-3.81-.52-5.43-1.56-1.62-1.04-2.9-2.54-3.84-4.49-.94-1.95-1.41-4.22-1.41-6.81s.47-4.86,1.41-6.79ZM557.9,169.23c-.88-.92-1.96-1.39-3.24-1.39s-2.4.45-3.26,1.36c-.86.91-1.3,2.18-1.3,3.82s.43,2.88,1.3,3.82c.86.94,1.95,1.41,3.26,1.41s2.36-.46,3.24-1.39c.88-.92,1.32-2.2,1.32-3.84s-.44-2.87-1.32-3.8Z"/>
        <path class="cls-1" d="M572.96,166.24c.94-1.94,2.22-3.43,3.84-4.47,1.62-1.04,3.43-1.56,5.43-1.56,1.73,0,3.22.34,4.47,1.03,1.25.69,2.22,1.61,2.91,2.77v-3.49h8.76v25.07h-8.76v-3.49c-.69,1.16-1.66,2.09-2.93,2.77-1.27.69-2.75,1.03-4.45,1.03-2,0-3.81-.52-5.43-1.56-1.62-1.04-2.9-2.54-3.84-4.49-.94-1.95-1.41-4.22-1.41-6.81s.47-4.86,1.41-6.79ZM588.29,169.23c-.88-.92-1.96-1.39-3.24-1.39s-2.4.45-3.26,1.36c-.86.91-1.3,2.18-1.3,3.82s.43,2.88,1.3,3.82c.86.94,1.95,1.41,3.26,1.41s2.36-.46,3.24-1.39c.88-.92,1.32-2.2,1.32-3.84s-.44-2.87-1.32-3.8Z"/>
        <path class="cls-1" d="M603.35,166.24c.94-1.94,2.23-3.43,3.87-4.47,1.64-1.04,3.46-1.56,5.45-1.56,1.61,0,3.05.34,4.31,1.01s2.26,1.59,2.97,2.75v-11.44h8.8v33.07h-8.8v-3.49c-.69,1.16-1.65,2.09-2.9,2.77-1.25.69-2.73,1.03-4.42,1.03-2,0-3.81-.52-5.43-1.56-1.62-1.04-2.9-2.54-3.84-4.49-.94-1.95-1.41-4.22-1.41-6.81s.47-4.86,1.41-6.79ZM618.67,169.23c-.88-.92-1.96-1.39-3.24-1.39s-2.4.45-3.26,1.36c-.86.91-1.3,2.18-1.3,3.82s.43,2.88,1.3,3.82c.86.94,1.95,1.41,3.26,1.41s2.36-.46,3.24-1.39c.88-.92,1.32-2.2,1.32-3.84s-.44-2.87-1.32-3.8Z"/>
        <path class="cls-1" d="M657.57,174.82h-16.58c.09,1.37.47,2.39,1.14,3.06.67.67,1.53,1.01,2.57,1.01,1.46,0,2.5-.66,3.13-1.97h9.34c-.39,1.73-1.14,3.27-2.26,4.62-1.12,1.36-2.52,2.42-4.22,3.19-1.7.77-3.58,1.16-5.63,1.16-2.47,0-4.67-.52-6.59-1.56-1.92-1.04-3.43-2.53-4.51-4.47-1.09-1.94-1.63-4.22-1.63-6.84s.54-4.89,1.61-6.81,2.57-3.4,4.49-4.45c1.92-1.04,4.13-1.56,6.64-1.56s4.66.51,6.57,1.52c1.91,1.01,3.4,2.47,4.47,4.36,1.07,1.89,1.61,4.12,1.61,6.68,0,.69-.04,1.37-.13,2.06ZM648.77,170.58c0-1.07-.36-1.91-1.07-2.53-.72-.61-1.61-.92-2.68-.92s-1.95.29-2.64.87c-.69.58-1.13,1.44-1.34,2.57h7.73Z"/>
      </g>
    </g>
  </g>
</svg>

